# xmcd
#
# Track frame offsets:
#	183
#	12878
#	28478
#	46095
#	60155
#	84408
#	102365
#	116570
#	130298
#	144165
#	157845
#	171853
#	186853
#	199495
#	214890
#	227845
#	241643
#	255333
#	268030
#	282250
#
# Disc length: 4085 seconds
#
# Revision: 1
# Processed by: cddbd v1.5PL3 Copyright (c) Steve Scherf et al.
# Submitted via: audiograbber 1.83.01
#
DISCID=0f0ff314
DTITLE=John Lee Hooker - Platinum Collection
DYEAR=1994
DGENRE=Blues
TTITLE0=In The Mood
TTITLE1=I'll Never Trust You Again
TTITLE2=You Know, I Know
TTITLE3=One Bourbon, One Scotch, One Beer
TTITLE4=I Put My Trust In You
TTITLE5=Peace Lovin' Man
TTITLE6=Stella Mae
TTITLE7=Women And Money
TTITLE8=It's My Own Fault Darling
TTITLE9=Down At The Landing
TTITLE10=Love Blues
TTITLE11=Sugar Mama
TTITLE12=Walkin' The Boogie
TTITLE13=Ramblin' By Myself
TTITLE14=Leave My Wife Alone
TTITLE15=Ground Hog Blues
TTITLE16=Onion Station Blues
TTITLE17=High Priced Woman
TTITLE18=Louise
TTITLE19=I Cover The Waterfront
EXTD=
EXTT0=
EXTT1=
EXTT2=
EXTT3=
EXTT4=
EXTT5=
EXTT6=
EXTT7=
EXTT8=
EXTT9=
EXTT10=
EXTT11=
EXTT12=
EXTT13=
EXTT14=
EXTT15=
EXTT16=
EXTT17=
EXTT18=
EXTT19=
PLAYORDER=
